<svg width="192pt" height="116pt" viewBox="0.00 0.00 192.30 116.00" xmlns="http://www.w3.org/2000/svg" xlink="http://www.w3.org/1999/xlink">
<g id="graph0" class="graph" transform="scale(1 1) rotate(0) translate(4 112)">
<title>foo</title>
<polygon fill="#ffffff" stroke="transparent" points="-4,4 -4,-112 188.2952,-112 188.2952,4 -4,4"></polygon>
<!-- client -->
<g id="node1" class="node">
<title>client</title>
<ellipse fill="none" stroke="#000000" cx="32.4894" cy="-90" rx="32.4788" ry="18"></ellipse>
<text text-anchor="middle" x="32.4894" y="-85.8" font-family="Times,serif" font-size="14.00" fill="#000000">client</text>
</g>
<!-- api -->
<g id="node2" class="node">
<title>api</title>
<ellipse fill="none" stroke="#000000" cx="109.4894" cy="-90" rx="27" ry="18"></ellipse>
<text text-anchor="middle" x="109.4894" y="-85.8" font-family="Times,serif" font-size="14.00" fill="#000000">api</text>
</g>
<!-- client&#45;&gt;api -->
<g id="edge1" class="edge">
<title>client-&gt;api</title>
<path fill="none" stroke="#000000" d="M65.2746,-90C67.5666,-90 69.8587,-90 72.1508,-90"></path>
<polygon fill="#000000" stroke="#000000" points="72.2006,-93.5001 82.2006,-90 72.2005,-86.5001 72.2006,-93.5001"></polygon>
</g>
<!-- postgres -->
<g id="node3" class="node">
<title>postgres</title>
<ellipse fill="none" stroke="#000000" cx="63.4894" cy="-18" rx="43.4377" ry="18"></ellipse>
<text text-anchor="middle" x="63.4894" y="-13.8" font-family="Times,serif" font-size="14.00" fill="#000000">postgres</text>
</g>
<!-- api&#45;&gt;postgres -->
<g id="edge2" class="edge">
<title>api-&gt;postgres</title>
<path fill="none" stroke="#000000" d="M98.8205,-73.3008C93.2934,-64.6496 86.4174,-53.8873 80.2042,-44.1623"></path>
<polygon fill="#000000" stroke="#000000" points="83.0757,-42.1558 74.7423,-35.6132 77.1768,-45.9245 83.0757,-42.1558"></polygon>
</g>
<!-- redis -->
<g id="node4" class="node">
<title>redis</title>
<ellipse fill="none" stroke="#000000" cx="154.4894" cy="-18" rx="29.6127" ry="18"></ellipse>
<text text-anchor="middle" x="154.4894" y="-13.8" font-family="Times,serif" font-size="14.00" fill="#000000">redis</text>
</g>
<!-- api&#45;&gt;redis -->
<g id="edge3" class="edge">
<title>api-&gt;redis</title>
<path fill="none" stroke="#000000" d="M119.9264,-73.3008C125.4129,-64.5224 132.258,-53.5703 138.4057,-43.7339"></path>
<polygon fill="#000000" stroke="#000000" points="141.4645,-45.4436 143.7965,-35.1086 135.5285,-41.7336 141.4645,-45.4436"></polygon>
</g>
</g>
</svg>
