<?xml version="1.0" encoding="UTF-8" standalone="no"?>
<!DOCTYPE svg PUBLIC "-//W3C//DTD SVG 1.1//EN"
 "http://www.w3.org/Graphics/SVG/1.1/DTD/svg11.dtd">
<!-- Generated by graphviz version 14.1.0 (20251206.1807)
 -->
<!-- Title: skill_loading Pages: 1 -->
<svg width="656pt" height="541pt"
 viewBox="0.00 0.00 656.00 541.00" xmlns="http://www.w3.org/2000/svg" xmlns:xlink="http://www.w3.org/1999/xlink">
<g id="graph0" class="graph" transform="scale(1 1) rotate(0) translate(14.4 526.19)">
<title>skill_loading</title>
<g id="clust1" class="cluster">
<title>cluster_disk</title>
<path fill="none" stroke="#b0b0b0" d="M20,-156.85C20,-156.85 242,-156.85 242,-156.85 248,-156.85 254,-162.85 254,-168.85 254,-168.85 254,-491.79 254,-491.79 254,-497.79 248,-503.79 242,-503.79 242,-503.79 20,-503.79 20,-503.79 14,-503.79 8,-497.79 8,-491.79 8,-491.79 8,-168.85 8,-168.85 8,-162.85 14,-156.85 20,-156.85"/>
<text xml:space="preserve" text-anchor="middle" x="131" y="-482.69" font-family="Helvetica,sans-Serif" font-size="18.00" fill="#606060">On disk</text>
</g>
<!-- disk_tree -->
<g id="node1" class="node">
<title>disk_tree</title>
<defs>
<linearGradient id="node1_l_0" gradientUnits="userSpaceOnUse" x1="15.75" y1="-379.92" x2="234.25" y2="-379.92" >
<stop offset="0" style="stop-color:#c2e59c;stop-opacity:1.;"/>
<stop offset="1" style="stop-color:#64b3f4;stop-opacity:1.;"/>
</linearGradient>
</defs>
<path fill="url(#node1_l_0)" stroke="#444444" d="M222.25,-469.04C222.25,-469.04 27.75,-469.04 27.75,-469.04 21.75,-469.04 15.75,-463.04 15.75,-457.04 15.75,-457.04 15.75,-302.79 15.75,-302.79 15.75,-296.79 21.75,-290.79 27.75,-290.79 27.75,-290.79 222.25,-290.79 222.25,-290.79 228.25,-290.79 234.25,-296.79 234.25,-302.79 234.25,-302.79 234.25,-457.04 234.25,-457.04 234.25,-463.04 228.25,-469.04 222.25,-469.04"/>
<text xml:space="preserve" text-anchor="start" x="23.75" y="-453.64" font-family="Menlo" font-size="12.00" fill="#203060">tree .</text>
<text xml:space="preserve" text-anchor="start" x="23.75" y="-425.39" font-family="Menlo" font-size="12.00" fill="#203060">~/.claude/skills/*</text>
<text xml:space="preserve" text-anchor="start" x="23.75" y="-411.14" font-family="Menlo" font-size="12.00" fill="#203060"> &#160;└── &lt;skill&gt;/</text>
<text xml:space="preserve" text-anchor="start" x="23.75" y="-396.89" font-family="Menlo" font-size="12.00" fill="#203060"> &#160;&#160;&#160;&#160;&#160;├── SKILL.md</text>
<text xml:space="preserve" text-anchor="start" x="23.75" y="-382.64" font-family="Menlo" font-size="12.00" fill="#203060"> &#160;&#160;&#160;&#160;&#160;└── scripts/*</text>
<text xml:space="preserve" text-anchor="start" x="23.75" y="-354.39" font-family="Menlo" font-size="12.00" fill="#203060">~/.codex/skills/*</text>
<text xml:space="preserve" text-anchor="start" x="23.75" y="-340.14" font-family="Menlo" font-size="12.00" fill="#203060"> &#160;└── &lt;skill&gt;/...</text>
<text xml:space="preserve" text-anchor="start" x="23.75" y="-311.89" font-family="Menlo" font-size="12.00" fill="#203060">~/.config/opencode/skills/*</text>
<text xml:space="preserve" text-anchor="start" x="23.75" y="-297.64" font-family="Menlo" font-size="12.00" fill="#203060"> &#160;└── &lt;skill&gt;/...</text>
</g>
<!-- skill_md -->
<g id="node2" class="node">
<title>skill_md</title>
<defs>
<linearGradient id="node2_l_1" gradientUnits="userSpaceOnUse" x1="138.26" y1="-191.72" x2="245.74" y2="-191.72" >
<stop offset="0" style="stop-color:#ffb75e;stop-opacity:1.;"/>
<stop offset="1" style="stop-color:#ed8f03;stop-opacity:1.;"/>
</linearGradient>
</defs>
<ellipse fill="url(#node2_l_1)" stroke="#444444" cx="192" cy="-191.72" rx="53.74" ry="26.87"/>
<text xml:space="preserve" text-anchor="middle" x="192" y="-193.42" font-family="Helvetica,sans-Serif" font-size="14.00" fill="#203060">SKILL.md</text>
<text xml:space="preserve" text-anchor="middle" x="192" y="-178.42" font-family="Helvetica,sans-Serif" font-size="14.00" fill="#203060">(full)</text>
</g>
<!-- disk_tree&#45;&gt;skill_md -->
<g id="edge1" class="edge">
<title>disk_tree&#45;&gt;skill_md</title>
<path fill="none" stroke="#5b5b5b" stroke-dasharray="5,2" d="M156.83,-290.46C164.88,-268.08 173.06,-245.35 179.5,-227.45"/>
<polygon fill="#5b5b5b" stroke="#5b5b5b" points="182.12,-228.45 182.19,-219.98 176.85,-226.56 182.12,-228.45"/>
<text xml:space="preserve" text-anchor="middle" x="190.92" y="-259.39" font-family="Helvetica,sans-Serif" font-size="12.00">contains</text>
</g>
<!-- scripts -->
<g id="node3" class="node">
<title>scripts</title>
<defs>
<linearGradient id="node3_l_2" gradientUnits="userSpaceOnUse" x1="16.38" y1="-193.72" x2="109.62" y2="-193.72" >
<stop offset="0" style="stop-color:#ffb75e;stop-opacity:1.;"/>
<stop offset="1" style="stop-color:#ed8f03;stop-opacity:1.;"/>
</linearGradient>
</defs>
<polygon fill="url(#node3_l_2)" stroke="#444444" points="109.62,-210.72 106.62,-214.72 85.62,-214.72 82.62,-210.72 16.38,-210.72 16.38,-172.72 109.62,-172.72 109.62,-210.72"/>
<text xml:space="preserve" text-anchor="middle" x="63" y="-193.42" font-family="Helvetica,sans-Serif" font-size="14.00" fill="#203060">scripts/*</text>
<text xml:space="preserve" text-anchor="middle" x="63" y="-178.42" font-family="Helvetica,sans-Serif" font-size="14.00" fill="#203060">(on demand)</text>
</g>
<!-- disk_tree&#45;&gt;scripts -->
<g id="edge2" class="edge">
<title>disk_tree&#45;&gt;scripts</title>
<path fill="none" stroke="#5b5b5b" stroke-dasharray="5,2" d="M95.54,-290.46C86.99,-264.77 78.28,-238.61 72.03,-219.83"/>
<polygon fill="#5b5b5b" stroke="#5b5b5b" points="74.74,-219.12 69.56,-212.41 69.43,-220.89 74.74,-219.12"/>
<text xml:space="preserve" text-anchor="middle" x="110.95" y="-259.39" font-family="Helvetica,sans-Serif" font-size="12.00">contains</text>
</g>
<!-- cli -->
<g id="node4" class="node">
<title>cli</title>
<defs>
<linearGradient id="node4_l_3" gradientUnits="userSpaceOnUse" x1="351.95" y1="-379.92" x2="610.05" y2="-379.92" >
<stop offset="0" style="stop-color:#eecda3;stop-opacity:1.;"/>
<stop offset="1" style="stop-color:#ef629f;stop-opacity:1.;"/>
</linearGradient>
</defs>
<ellipse fill="url(#node4_l_3)" stroke="#444444" cx="481" cy="-379.92" rx="129.05" ry="37.48"/>
<text xml:space="preserve" text-anchor="middle" x="481" y="-389.12" font-family="Helvetica,sans-Serif" font-size="14.00" fill="#203060">CLI tool</text>
<text xml:space="preserve" text-anchor="middle" x="481" y="-374.12" font-family="Helvetica,sans-Serif" font-size="14.00" fill="#203060">(opencode / codex / claude)</text>
<text xml:space="preserve" text-anchor="middle" x="481" y="-359.12" font-family="Helvetica,sans-Serif" font-size="14.00" fill="#203060">scan + parse + index</text>
</g>
<!-- disk_tree&#45;&gt;cli -->
<g id="edge3" class="edge">
<title>disk_tree&#45;&gt;cli</title>
<path fill="none" stroke="#2d7dd2" d="M234.72,-379.92C268.66,-379.92 306.51,-379.92 342.16,-379.92"/>
<polygon fill="#2d7dd2" stroke="#2d7dd2" points="342.14,-382.72 350.14,-379.92 342.14,-377.12 342.14,-382.72"/>
<text xml:space="preserve" text-anchor="middle" x="293.1" y="-384.27" font-family="Helvetica,sans-Serif" font-size="12.00" fill="#2d7dd2">scan skill folders</text>
</g>
<!-- llm_live -->
<g id="node6" class="node">
<title>llm_live</title>
<defs>
<linearGradient id="node6_l_4" gradientUnits="userSpaceOnUse" x1="134.52" y1="-50.75" x2="339.48" y2="-50.75" >
<stop offset="0" style="stop-color:#7b4397;stop-opacity:1.;"/>
<stop offset="1" style="stop-color:#dc2430;stop-opacity:1.;"/>
</linearGradient>
</defs>
<polygon fill="url(#node6_l_4)" stroke="#7b4397" points="339.48,-60.64 237,-92.65 134.52,-60.64 173.66,-8.85 300.34,-8.85 339.48,-60.64"/>
<text xml:space="preserve" text-anchor="middle" x="237" y="-55.52" font-family="Helvetica,sans-Serif" font-size="14.00" fill="white">LLM agent</text>
<text xml:space="preserve" text-anchor="middle" x="237" y="-40.52" font-family="Helvetica,sans-Serif" font-size="14.00" fill="white">(context window)</text>
<text xml:space="preserve" text-anchor="middle" x="237" y="-25.52" font-family="Helvetica,sans-Serif" font-size="14.00" fill="white">ready</text>
</g>
<!-- scripts&#45;&gt;llm_live -->
<g id="edge9" class="edge">
<title>scripts&#45;&gt;llm_live</title>
<path fill="none" stroke="#ed8f03" d="M62.67,-172.54C63.3,-155.25 66.83,-129.45 81,-112.65 97.26,-93.35 120.19,-79.65 143.47,-69.96"/>
<polygon fill="#ed8f03" stroke="#ed8f03" points="144.24,-72.67 150.65,-67.13 142.18,-67.46 144.24,-72.67"/>
<text xml:space="preserve" text-anchor="middle" x="97.5" y="-114" font-family="Helvetica,sans-Serif" font-size="12.00" fill="#ed8f03">output</text>
</g>
<!-- llm_boot -->
<g id="node5" class="node">
<title>llm_boot</title>
<defs>
<linearGradient id="node5_l_5" gradientUnits="userSpaceOnUse" x1="274.52" y1="-196.14" x2="479.48" y2="-196.14" >
<stop offset="0" style="stop-color:#7b4397;stop-opacity:1.;"/>
<stop offset="1" style="stop-color:#dc2430;stop-opacity:1.;"/>
</linearGradient>
</defs>
<polygon fill="url(#node5_l_5)" stroke="#7b4397" points="479.48,-206.04 377,-238.04 274.52,-206.04 313.66,-154.24 440.34,-154.24 479.48,-206.04"/>
<text xml:space="preserve" text-anchor="middle" x="377" y="-200.92" font-family="Helvetica,sans-Serif" font-size="14.00" fill="white">LLM agent</text>
<text xml:space="preserve" text-anchor="middle" x="377" y="-185.92" font-family="Helvetica,sans-Serif" font-size="14.00" fill="white">(context window)</text>
<text xml:space="preserve" text-anchor="middle" x="377" y="-170.92" font-family="Helvetica,sans-Serif" font-size="14.00" fill="white">boot</text>
</g>
<!-- cli&#45;&gt;llm_boot -->
<g id="edge4" class="edge">
<title>cli&#45;&gt;llm_boot</title>
<path fill="none" stroke="#2d7dd2" d="M460.7,-342.58C444.31,-313.24 421.13,-271.74 403.32,-239.84"/>
<polygon fill="#2d7dd2" stroke="#2d7dd2" points="405.77,-238.48 399.42,-232.86 400.88,-241.21 405.77,-238.48"/>
<text xml:space="preserve" text-anchor="middle" x="486.06" y="-259.39" font-family="Helvetica,sans-Serif" font-size="12.00" fill="#2d7dd2">inject name + description</text>
</g>
<!-- llm_boot&#45;&gt;llm_live -->
<g id="edge5" class="edge">
<title>llm_boot&#45;&gt;llm_live</title>
<path fill="none" stroke="#8a8a8a" stroke-dasharray="5,2" d="M343.18,-153.85C330.96,-140.72 316.98,-125.91 304,-112.65 296.19,-104.67 287.74,-96.26 279.56,-88.24"/>
<polygon fill="#8a8a8a" stroke="#8a8a8a" points="281.53,-86.25 273.85,-82.66 277.61,-90.25 281.53,-86.25"/>
<text xml:space="preserve" text-anchor="middle" x="327.42" y="-114" font-family="Helvetica,sans-Serif" font-size="12.00" fill="#8a8a8a">time</text>
</g>
<!-- llm_live&#45;&gt;skill_md -->
<g id="edge7" class="edge">
<title>llm_live&#45;&gt;skill_md</title>
<path fill="none" stroke="#ed8f03" d="M223.97,-88.85C217.3,-110.1 209.28,-135.67 202.93,-155.88"/>
<polygon fill="#ed8f03" stroke="#ed8f03" points="200.33,-154.84 200.6,-163.31 205.67,-156.51 200.33,-154.84"/>
<text xml:space="preserve" text-anchor="middle" x="256.35" y="-114" font-family="Helvetica,sans-Serif" font-size="12.00" fill="#ed8f03">if relevant: load</text>
</g>
<!-- llm_live&#45;&gt;scripts -->
<g id="edge8" class="edge">
<title>llm_live&#45;&gt;scripts</title>
<path fill="none" stroke="#ed8f03" d="M184.39,-76.55C167.38,-87.01 148.88,-99.48 133.25,-112.65 114.5,-128.44 96.08,-149.17 82.8,-165.3"/>
<polygon fill="#ed8f03" stroke="#ed8f03" points="80.9,-163.2 78.04,-171.18 85.25,-166.73 80.9,-163.2"/>
<text xml:space="preserve" text-anchor="middle" x="169.62" y="-114" font-family="Helvetica,sans-Serif" font-size="12.00" fill="#ed8f03">if needed: run</text>
</g>
<!-- prompt -->
<g id="node7" class="node">
<title>prompt</title>
<defs>
<linearGradient id="node7_l_6" gradientUnits="userSpaceOnUse" x1="508.86" y1="-191.72" x2="627.14" y2="-191.72" >
<stop offset="0" style="stop-color:#c2e59c;stop-opacity:1.;"/>
<stop offset="1" style="stop-color:#64b3f4;stop-opacity:1.;"/>
</linearGradient>
</defs>
<ellipse fill="url(#node7_l_6)" stroke="#444444" cx="568" cy="-191.72" rx="59.14" ry="18"/>
<text xml:space="preserve" text-anchor="middle" x="568" y="-185.92" font-family="Helvetica,sans-Serif" font-size="14.00" fill="#203060">User prompt</text>
</g>
<!-- prompt&#45;&gt;llm_live -->
<g id="edge6" class="edge">
<title>prompt&#45;&gt;llm_live</title>
<path fill="none" stroke="#5b5b5b" d="M544.64,-174.87C530.38,-165.59 511.57,-154.04 494,-145.4 436.58,-117.16 368.85,-91.61 317.35,-73.67"/>
<polygon fill="#5b5b5b" stroke="#5b5b5b" points="318.48,-71.1 310.01,-71.13 316.65,-76.4 318.48,-71.1"/>
<text xml:space="preserve" text-anchor="middle" x="466.1" y="-114" font-family="Helvetica,sans-Serif" font-size="12.00">request</text>
</g>
</g>
</svg>
